<svg xmlns="http://www.w3.org/2000/svg" width="12" height="12" viewBox="0 0 12 12" fill="none">
  <g clip-path="url(#clip0_689_19283)">
    <path fill-rule="evenodd" clip-rule="evenodd" d="M6.49497 9.61684C6.76834 9.34347 6.76834 8.90026 6.49497 8.62689L1.25859 3.3905C0.985219 3.11714 0.542003 3.11714 0.268636 3.3905C-0.00473059 3.66387 -0.00473086 4.10709 0.268636 4.38045L5.50503 9.61684C5.77839 9.89021 6.22161 9.89021 6.49497 9.61684Z" fill="#99A1AD"/>
    <path fill-rule="evenodd" clip-rule="evenodd" d="M5.50503 9.61684C5.77839 9.89021 6.22161 9.89021 6.49497 9.61684L11.7314 4.38045C12.0047 4.10709 12.0047 3.66387 11.7314 3.3905C11.458 3.11714 11.0148 3.11714 10.7414 3.3905L5.50503 8.62689C5.23166 8.90026 5.23166 9.34347 5.50503 9.61684Z" fill="#99A1AD"/>
  </g>
  <defs>
    <clipPath id="clip0_689_19283">
      <rect width="12" height="12" fill="white"/>
    </clipPath>
  </defs>
</svg>