<svg xmlns="http://www.w3.org/2000/svg" width="20" height="21" viewBox="0 0 20 21" fill="none">
  <rect y="0.5" width="20" height="20" rx="10" fill="#EDF1F7"/>
  <path fill-rule="evenodd" clip-rule="evenodd" d="M13.8976 6.60447C14.2882 6.995 14.2882 7.62816 13.8976 8.01869L7.51976 14.3966C7.12923 14.7871 6.49607 14.7871 6.10554 14.3966C5.71502 14.006 5.71502 13.3729 6.10554 12.9823L12.4834 6.60447C12.8739 6.21395 13.5071 6.21395 13.8976 6.60447Z" fill="#79828F"/>
  <path fill-rule="evenodd" clip-rule="evenodd" d="M6.10447 6.60432C6.495 6.2138 7.12816 6.2138 7.51869 6.60432L13.8966 12.9822C14.2871 13.3727 14.2871 14.0059 13.8966 14.3964C13.506 14.7869 12.8729 14.7869 12.4823 14.3964L6.10447 8.01854C5.71395 7.62801 5.71395 6.99485 6.10447 6.60432Z" fill="#79828F"/>
</svg>