<svg xmlns="http://www.w3.org/2000/svg" width="12" height="12" viewBox="0 0 12 12" fill="none">
  <path fill-rule="evenodd" clip-rule="evenodd" d="M2.15167 2.15167C2.3539 1.94944 2.68178 1.94944 2.88401 2.15167L9.84833 9.11599C10.0506 9.31822 10.0506 9.6461 9.84833 9.84833C9.6461 10.0506 9.31822 10.0506 9.11599 9.84833L2.15167 2.88401C1.94944 2.68178 1.94944 2.3539 2.15167 2.15167Z" fill="#99A1AD"/>
  <path fill-rule="evenodd" clip-rule="evenodd" d="M9.84833 2.15167C10.0506 2.3539 10.0506 2.68178 9.84833 2.88401L2.88401 9.84833C2.68178 10.0506 2.3539 10.0506 2.15167 9.84833C1.94944 9.6461 1.94944 9.31822 2.15167 9.11599L9.11599 2.15167C9.31822 1.94944 9.6461 1.94944 9.84833 2.15167Z" fill="#99A1AD"/>
</svg>