<svg xmlns="http://www.w3.org/2000/svg" width="12" height="12" viewBox="0 0 12 12" fill="none">
  <rect width="12" height="12" rx="6" fill="#79828F"/>
  <path fill-rule="evenodd" clip-rule="evenodd" d="M8.33853 3.66271C8.57284 3.89702 8.57284 4.27692 8.33853 4.51124L4.51181 8.33796C4.27749 8.57227 3.89759 8.57228 3.66328 8.33796C3.42896 8.10365 3.42896 7.72375 3.66328 7.48943L7.49 3.66271C7.72432 3.42839 8.10422 3.42839 8.33853 3.66271Z" fill="white"/>
  <path fill-rule="evenodd" clip-rule="evenodd" d="M3.66259 3.66257C3.8969 3.42825 4.2768 3.42825 4.51111 3.66257L8.33784 7.48929C8.57215 7.72361 8.57215 8.10351 8.33784 8.33782C8.10352 8.57214 7.72362 8.57214 7.48931 8.33782L3.66259 4.5111C3.42827 4.27678 3.42827 3.89688 3.66259 3.66257Z" fill="white"/>
</svg>