<svg xmlns="http://www.w3.org/2000/svg" width="16" height="16" viewBox="0 0 16 16" fill="none">
  <path fill-rule="evenodd" clip-rule="evenodd" d="M8 0C3.58172 0 0 3.58172 0 8C0 12.4183 3.58172 16 8 16C12.4183 16 16 12.4183 16 8C16 3.58172 12.4183 0 8 0ZM11.9613 5.67643C12.1161 5.83118 12.1161 6.08207 11.9613 6.23681L7.19812 11L4.11606 7.91793C3.96131 7.76319 3.96131 7.5123 4.11606 7.35756L4.67643 6.79718C4.83118 6.64244 5.08207 6.64244 5.23681 6.79718L7.19812 8.7585L10.8406 5.11606C10.9953 4.96131 11.2462 4.96131 11.4009 5.11606L11.9613 5.67643Z" fill="#006CE2"/>
  <path fill-rule="evenodd" clip-rule="evenodd" d="M11.8851 6.23681C12.0383 6.08207 12.0383 5.83118 11.8851 5.67643L11.33 5.11606C11.1768 4.96131 10.9283 4.96131 10.775 5.11606L7.16749 8.7585L5.22496 6.79718C5.0717 6.64244 4.82321 6.64244 4.66995 6.79718L4.11495 7.35756C3.96168 7.5123 3.96168 7.76319 4.11495 7.91793L7.16749 11L11.8851 6.23681Z" fill="white"/>
</svg>