  <svg
    xmlns="http://www.w3.org/2000/svg"
    width="12"
    height="12"
    viewBox="0 0 12 12"
    fill="none"
    v-bind="attrs"
  >
    <g clip-path="url(#clip0_689_19332)">
      <path
        fill-rule="evenodd"
        clip-rule="evenodd"
        d="M5.50503 2.38316C5.23166 2.65653 5.23166 3.09974 5.50503 3.37311L10.7414 8.6095C11.0148 8.88286 11.458 8.88286 11.7314 8.6095C12.0047 8.33613 12.0047 7.89291 11.7314 7.61955L6.49497 2.38316C6.22161 2.10979 5.77839 2.10979 5.50503 2.38316Z"
        fill="#0065FF"
      />
      <path
        fill-rule="evenodd"
        clip-rule="evenodd"
        d="M6.49497 2.38316C6.22161 2.10979 5.77839 2.10979 5.50503 2.38316L0.268636 7.61955C-0.00473137 7.89291 -0.00473113 8.33613 0.268636 8.6095C0.542003 8.88286 0.985218 8.88286 1.25859 8.6095L6.49497 3.37311C6.76834 3.09974 6.76834 2.65653 6.49497 2.38316Z"
        fill="#0065FF"
      />
    </g>
    <defs>
      <clipPath id="clip0_689_19332">
        <rect
          width="12"
          height="12"
          fill="white"
          transform="translate(12 12) rotate(-180)"
        />
      </clipPath>
    </defs>
  </svg>