<svg xmlns="http://www.w3.org/2000/svg" width="20" height="20" viewBox="0 0 20 20" fill="none">
  <path fill-rule="evenodd" clip-rule="evenodd" d="M14.1922 15.6064C13.0236 16.4816 11.5723 17 10 17C6.13401 17 3 13.866 3 10C3 6.13401 6.13401 3 10 3C13.866 3 17 6.13401 17 10C17 11.5723 16.4816 13.0236 15.6064 14.1922L17.7678 16.3536C17.963 16.5488 17.963 16.8654 17.7678 17.0607L17.0607 17.7678C16.8654 17.963 16.5488 17.963 16.3536 17.7678L14.1922 15.6064ZM15 10C15 12.7614 12.7614 15 10 15C7.23858 15 5 12.7614 5 10C5 7.23858 7.23858 5 10 5C12.7614 5 15 7.23858 15 10Z" fill="#898989"/>
</svg>