<svg xmlns="http://www.w3.org/2000/svg" width="18" height="18" viewBox="0 0 18 18" fill="none">
  <path d="M13.9694 1.00788C14.7396 0.216124 15.9883 0.216124 16.7585 1.00788L16.7978 1.04828C17.568 1.84003 17.568 3.12372 16.7978 3.91547L11.8284 9.02395L16.7978 14.1325C17.568 14.9242 17.568 16.2079 16.7978 16.9996L16.7585 17.04C15.9883 17.8318 14.7396 17.8318 13.9694 17.04L8.99999 11.9315L4.03058 17.04C3.26039 17.8318 2.01166 17.8318 1.24146 17.04L1.20216 16.9996C0.431962 16.2079 0.431963 14.9242 1.20216 14.1325L6.17157 9.02395L1.20218 3.91547C0.43198 3.12372 0.431979 1.84003 1.20217 1.04828L1.24148 1.00788C2.01167 0.216124 3.26041 0.216124 4.0306 1.00788L8.99999 6.11636L13.9694 1.00788Z" fill="#A3B3CC"/>
</svg>